<svg xmlns="http://www.w3.org/2000/svg" viewBox="0 0 64 64"><path fill="#8fd7f8" fill-rule="evenodd" d="M48.35 7.19v49.62h6.69c2.19 0 3.95-1.76 3.95-3.96V11.14c0-2.19-1.76-3.96-3.95-3.96h-6.69Z"/><path fill="#f0f3f5" fill-rule="evenodd" d="M41.66 7.19v49.62h6.69a3.95 3.95 0 0 0 3.96-3.96V11.14c0-2.19-1.77-3.96-3.96-3.96h-6.69Z"/><path fill="#8fd7f8" fill-rule="evenodd" d="M34.97 7.19v49.62h6.69c2.19 0 3.95-1.76 3.95-3.96V11.14c0-2.19-1.76-3.96-3.95-3.96h-6.69Z"/><path fill="#f0f3f5" d="M8.95 7.19h26.01c2.18 0 3.95 1.77 3.95 3.95v41.72c0 2.18-1.77 3.96-3.96 3.96h-26C6.77 56.82 5 55.05 5 52.87V11.14c0-2.18 1.77-3.95 3.95-3.95Z"/><path fill="#8996a8" fill-rule="evenodd" d="M33.93 32c0 6.61-5.36 11.97-11.97 11.97S9.99 38.61 9.99 32s5.36-11.97 11.97-11.97S33.93 25.39 33.93 32Z"/><path fill="#e8a3c1" fill-rule="evenodd" d="M21.96 25.82c-.29 0-.57.11-.79.33l-3.33 3.33a2.91 2.91 0 0 0 0 4.12c.67.67 1.57.94 2.43.83l-.35 1.71c-.23 1.11.91 2.04 2.04 2.04s2.26-.93 2.04-2.04l-.35-1.71c.86.11 1.77-.16 2.43-.83a2.91 2.91 0 0 0 0-4.12l-3.33-3.33c-.22-.22-.51-.33-.79-.33Z"/><path fill="#7a8594" fill-rule="evenodd" d="M21.96 20.03c-.6 0-1.2.05-1.8.14 5.83.9 10.14 5.92 10.14 11.83s-4.32 10.93-10.15 11.82c.6.1 1.21.14 1.82.15 6.61 0 11.97-5.36 11.97-11.97s-5.36-11.97-11.97-11.97Z"/><path fill="#75cdf8" fill-rule="evenodd" d="M50.97 7.19c2.19 0 3.95 1.76 3.95 3.96v41.71c0 2.19-1.76 3.96-3.95 3.96h4.07c2.19 0 3.95-1.76 3.95-3.96V11.14c0-2.19-1.76-3.96-3.95-3.96h-4.07Z"/><path fill="#e4ecf0" fill-rule="evenodd" d="M44.28 7.19c2.19 0 3.95 1.76 3.95 3.96v41.71c0 2.19-1.76 3.96-3.95 3.96h4.07a3.95 3.95 0 0 0 3.96-3.96V11.14a3.95 3.95 0 0 0-3.96-3.96h-4.07Z"/><path fill="#75cdf8" fill-rule="evenodd" d="M37.58 7.19c2.19 0 3.95 1.76 3.95 3.96v41.71c0 2.19-1.76 3.96-3.95 3.96h4.07a3.95 3.95 0 0 0 3.96-3.96V11.14a3.95 3.95 0 0 0-3.96-3.96h-4.07Z"/><path fill="#e4ecf0" fill-rule="evenodd" d="M30.89 7.19c2.19 0 3.95 1.76 3.95 3.96v41.71c0 2.19-1.76 3.96-3.95 3.96h4.07c2.19 0 3.95-1.76 3.95-3.96V11.14c0-2.19-1.76-3.96-3.95-3.96h-4.07Z"/><path d="M55.04 6.19H8.96C6.23 6.19 4 8.41 4 11.14v41.72c0 2.73 2.22 4.96 4.96 4.96h46.08c2.73 0 4.96-2.22 4.96-4.96V11.14c0-2.73-2.22-4.95-4.96-4.95Zm-3.74 4.95v41.72c0 1.63-1.33 2.96-2.96 2.96H45.6c.62-.83 1-1.84 1-2.96V11.14c0-1.11-.38-2.13-1-2.95h2.74c1.63 0 2.96 1.33 2.96 2.95ZM38.91 55.81c.62-.83 1-1.84 1-2.96V11.14c0-1.11-.38-2.13-1-2.95h2.74c1.63 0 2.96 1.33 2.96 2.95v41.72c0 1.63-1.33 2.96-2.96 2.96h-2.74Zm-29.96 0c-1.63 0-2.96-1.33-2.96-2.96V11.14c0-1.63 1.33-2.95 2.96-2.95h26.01c1.63 0 2.95 1.33 2.95 2.95v41.72c0 1.63-1.33 2.96-2.95 2.96h-26Zm49.04-2.96c0 1.63-1.33 2.96-2.96 2.96h-2.74c.62-.83 1-1.84 1-2.96V11.14c0-1.11-.38-2.13-1-2.95h2.74c1.63 0 2.96 1.33 2.96 2.95v41.72Z"/><path d="M23.46 25.44c-.4-.4-.93-.62-1.5-.62-.56 0-1.1.22-1.5.62l-3.33 3.33a3.905 3.905 0 0 0 0 5.53c.54.54 1.21.9 1.93 1.06l-.12.57c-.15.73.04 1.47.54 2.08.59.72 1.54 1.16 2.48 1.16s1.89-.44 2.48-1.16c.5-.61.69-1.35.54-2.08l-.12-.57c.72-.16 1.39-.52 1.93-1.06a3.905 3.905 0 0 0 0-5.53l-3.33-3.33zm-1.41 1.41 3.33 3.33c.75.75.75 1.96 0 2.71-.42.42-1.01.62-1.6.55a.993.993 0 0 0-.86.31c-.22.24-.31.56-.25.88l.35 1.71c.01.05.04.2-.13.41-.42.51-1.44.51-1.86 0-.17-.21-.14-.36-.13-.41l.35-1.71c.06-.32-.03-.64-.25-.88a.985.985 0 0 0-.73-.32h-.13c-.59.08-1.18-.12-1.6-.55-.75-.75-.74-1.96 0-2.71l3.33-3.33s.05-.04.09-.04l.08.03zM10.2 12.37c.21-.21.33-.5.33-.79s-.12-.58-.33-.8c-.21-.21-.5-.33-.79-.33a1.13 1.13 0 0 0-1.12 1.13 1.13 1.13 0 0 0 1.12 1.12c.29 0 .58-.12.79-.33zm3.98 0c.21-.21.33-.5.33-.79s-.12-.58-.33-.8c-.21-.21-.5-.33-.79-.33s-.58.12-.79.33-.33.5-.33.8.12.58.33.79c.43.43 1.15.43 1.59 0zm15.56 39.26c-.21.21-.33.5-.33.79s.12.58.33.79c.21.21.5.33.79.33s.58-.12.79-.33.33-.5.33-.79-.12-.58-.33-.79c-.44-.44-1.15-.44-1.59 0zm5.9.8a1.13 1.13 0 0 0-1.12-1.12 1.13 1.13 0 0 0-1.12 1.12 1.123 1.123 0 0 0 2.25 0z"/><path d="M34.93 32c0-7.15-5.82-12.97-12.97-12.97S8.99 24.85 8.99 32s5.82 12.97 12.97 12.97S34.93 39.15 34.93 32ZM21.96 42.97c-6.05 0-10.97-4.92-10.97-10.97s4.92-10.97 10.97-10.97S32.93 25.95 32.93 32s-4.92 10.97-10.97 10.97Z"/></svg>